<svg width="20" height="17" viewBox="0 0 20 17" fill="none" xmlns="http://www.w3.org/2000/svg">
<path d="M14.2383 0C12.4233 0 10.8343 0.780469 9.84375 2.09971C8.85322 0.780469 7.26416 0 5.44922 0C4.0045 0.00162838 2.61941 0.576264 1.59784 1.59784C0.576265 2.61941 0.00162934 4.0045 9.53674e-07 5.44922C9.53674e-07 11.6016 9.12217 16.5814 9.51065 16.7871C9.61304 16.8422 9.72749 16.871 9.84375 16.871C9.96002 16.871 10.0745 16.8422 10.1769 16.7871C10.5653 16.5814 19.6875 11.6016 19.6875 5.44922C19.6859 4.0045 19.1112 2.61941 18.0897 1.59784C17.0681 0.576264 15.683 0.00162838 14.2383 0Z" fill="black"/>
<path d="M14.2383 0C12.4233 0 10.8343 0.780469 9.84375 2.09971C8.85322 0.780469 7.26416 0 5.44922 0C4.0045 0.00162838 2.61941 0.576264 1.59784 1.59784C0.576264 2.61941 0.00162838 4.0045 0 5.44922C0 11.6016 9.12217 16.5814 9.51064 16.7871C9.61303 16.8422 9.72748 16.871 9.84375 16.871C9.96002 16.871 10.0745 16.8422 10.1769 16.7871C10.5653 16.5814 19.6875 11.6016 19.6875 5.44922C19.6859 4.0045 19.1112 2.61941 18.0897 1.59784C17.0681 0.576264 15.683 0.00162838 14.2383 0ZM9.84375 15.3633C8.23887 14.4281 1.40625 10.1681 1.40625 5.44922C1.40765 4.37739 1.83405 3.34985 2.59195 2.59195C3.34985 1.83405 4.37739 1.40765 5.44922 1.40625C7.15869 1.40625 8.59395 2.3168 9.19336 3.7793C9.24633 3.90826 9.33645 4.01856 9.45226 4.09619C9.56806 4.17381 9.70433 4.21526 9.84375 4.21526C9.98317 4.21526 10.1194 4.17381 10.2352 4.09619C10.3511 4.01856 10.4412 3.90826 10.4941 3.7793C11.0936 2.31416 12.5288 1.40625 14.2383 1.40625C15.3101 1.40765 16.3376 1.83405 17.0956 2.59195C17.8535 3.34985 18.2799 4.37739 18.2812 5.44922C18.2812 10.161 11.4469 14.4272 9.84375 15.3633Z" fill="white"/>
</svg>
